<svg width="800" height="800" viewBox="180 220 460 540" xmlns="http://www.w3.org/2000/svg">
  <defs>
    <linearGradient id="grad" x1="0" y1="0" x2="1" y2="1">
      <stop offset="0" stop-color="#5AD6FF"/>
      <stop offset="0.5" stop-color="#5B7CFF"/>
      <stop offset="1" stop-color="#7B5BFF"/>
    </linearGradient>
  </defs>

  <g fill="url(#grad)">
    <!-- ヘルメットと上半身 -->
    <path d="M676 240a250 250 0 0 0-38-3c-129 0-234 105-234 234 0 23 3 45 9 66-36 2-70 13-98 33-43 31-69 79-71 132-1 31 9 61 29 86h314c13 0 24-10 25-23 3-63-17-122-57-168-37-43-90-75-156-92 52-42 99-111 149-201 27-49 65-85 128-64z"/>
    <!-- 腕 -->
    <path d="M205 652c0-45 36-81 81-81h145c45 0 81 36 81 81v22c0 45-36 81-81 81H286c-45 0-81-36-81-81v-22z"/>
    <!-- 手 -->
    <circle cx="289" cy="742" r="46"/>
    <!-- バイザー -->
    <path d="M537 456H356c-33 0-60 27-60 60v18c0 33 27 60 60 60h179c33 0 66-17 84-45l14-22c14-22-3-71-96-71z" fill="#F5FBFF"/>
    <!-- スティック -->
    <rect x="334" y="620" width="56" height="210" rx="22"/>
  </g>

  <!-- センサー／目 -->
  <circle cx="485" cy="528" r="16" fill="#10B981"/>

  <!-- 顎下ハイライト -->
  <path d="M460 620c40-8 79-5 116 3" fill="none" stroke="#F5FBFF" stroke-width="16" stroke-linecap="round"/>
</svg>
