<svg xmlns="http://www.w3.org/2000/svg" viewBox="0 0 120 120" fill="none">
  <defs>
    <linearGradient id="A-gradient" x1="24" y1="12" x2="96" y2="96" gradientUnits="userSpaceOnUse">
      <stop offset="0" stop-color="#5AD6FF" />
      <stop offset="0.45" stop-color="#5B7CFF" />
      <stop offset="1" stop-color="#7B5BFF" />
    </linearGradient>
    <linearGradient id="A-glow" x1="40" y1="88" x2="88" y2="40" gradientUnits="userSpaceOnUse">
      <stop offset="0" stop-color="#FFFFFF" stop-opacity="0.85" />
      <stop offset="1" stop-color="#7B5BFF" stop-opacity="0.25" />
    </linearGradient>
    <filter id="soft-shadow" x="-30" y="-20" width="180" height="180" color-interpolation-filters="sRGB">
      <feDropShadow dx="0" dy="10" stdDeviation="12" flood-color="#5B7CFF" flood-opacity="0.32" />
    </filter>
  </defs>

  <g filter="url(#soft-shadow)">
    <path d="M58 18a4 4 0 0 1 4 0l38 66c2.2 3.8-0.55 8.5-4.9 8.5H24.9c-4.35 0-7.1-4.7-4.9-8.5L58 18Z" fill="url(#A-gradient)" />
    <path d="M58.95 42c-0.76 0-1.45 0.39-1.84 1.03L36.6 78.8c-0.98 1.6 0.18 3.7 2.08 3.7H81.3c1.9 0 3.06-2.1 2.08-3.7L60.89 43.03A2.13 2.13 0 0 0 58.95 42Z" fill="#101B4F" fill-opacity="0.14" />
    <path d="M59.6 52.2c0.54-0.93 1.9-0.93 2.44 0l15.2 26.2c0.55 0.94-0.14 2.12-1.22 2.12H45.62c-1.08 0-1.77-1.18-1.22-2.12L59.6 52.2Z" fill="url(#A-glow)" />
  </g>
</svg>
